<svg preserveAspectRatio="none" width="100%" height="100%" overflow="visible" style="display: block;" viewBox="0 0 24 24" fill="none" xmlns="http://www.w3.org/2000/svg">
<g id="clock" opacity="0.5">
<path id="Subtract" d="M12.5 1.5C18.299 1.5 23 6.20101 23 12C23 17.799 18.299 22.5 12.5 22.5C6.701 22.5 1.99999 17.799 1.99999 12C1.99999 6.20101 6.701 1.5 12.5 1.5ZM12.5 2.5C7.25329 2.5 2.99999 6.75329 2.99999 12C2.99999 17.2467 7.25329 21.5 12.5 21.5C17.7467 21.5 22 17.2467 22 12C22 6.75329 17.7467 2.5 12.5 2.5Z" stroke="var(--stroke-0, white)"/>
<path id="Vector 746 (Stroke)" d="M13 5.5V12H17.5V14H13L12 13L11 12V5.5H13Z" fill="var(--fill-0, white)"/>
</g>
</svg>
